<svg width="373" height="187" viewBox="0 0 373 187" fill="none" xmlns="http://www.w3.org/2000/svg">
  <style>
    :root {
    --bg-color: white;
    --rect-color: #1a1a1a;
    }

    @media (prefers-color-scheme: dark) {
    :root {
    --bg-color: #1a1a1a;
    --rect-color: white;
    }
    }
  </style>
  <path
    d="M99.2179 145.583H97.6306C93.3324 145.583 91.0374 140.519 93.8712 137.287L184.628 33.7805C187.462 30.5486 185.167 25.4841 180.869 25.4841H124.873C121.78 25.4841 119.429 22.705 119.942 19.6553L122.523 4.30018C122.927 1.89234 125.012 0.128906 127.453 0.128906H234.587H236.536C240.838 0.128906 243.132 5.20228 240.289 8.43216L149.21 111.925C146.367 115.155 148.661 120.228 152.963 120.228H208.933C212.025 120.228 214.376 123.008 213.863 126.057L211.282 141.412C210.878 143.82 208.793 145.583 206.352 145.583H99.2179Z"
    fill="var(--rect-color)" />
  <path
    d="M7.21789 186.668H5.6755C1.37008 186.668 -0.922254 181.588 1.92607 178.36L121.45 42.8794C122.399 41.8037 123.765 41.1874 125.199 41.1872L144.419 41.1849C148.72 41.1844 151.015 46.2546 148.176 49.4855L57.197 153.013C54.3579 156.244 56.6519 161.313 60.9528 161.313H116.933C120.025 161.313 122.376 164.093 121.863 167.142L119.282 182.496C118.878 184.904 116.793 186.668 114.352 186.668H7.21789Z"
    fill="var(--rect-color)" />
  <path fill-rule="evenodd" clip-rule="evenodd"
    d="M212.286 102.522C211.336 103.614 209.96 104.241 208.512 104.241H189.005C184.698 104.241 182.406 99.1593 185.257 95.9313L209.601 68.3665C209.71 68.213 209.829 68.0628 209.958 67.9163L223.217 52.9171C223.32 52.8001 223.428 52.6885 223.541 52.5826L254.926 17.0462C254.987 16.9687 255.051 16.8922 255.117 16.8167L267.659 2.62873L268.374 1.81909C269.323 0.744421 270.687 0.128906 272.121 0.128906H272.122H294.83H367.767C372.12 0.128906 374.394 5.30431 371.45 8.51039L357.68 23.5096C356.733 24.541 355.397 25.1281 353.996 25.1281H285.465C284.064 25.1281 282.728 25.7157 281.781 26.7479L267.009 42.8482C264.067 46.0547 266.342 51.2285 270.693 51.2285H292.608C296.96 51.2285 299.235 56.4039 296.291 59.61L282.52 74.6092C281.573 75.6406 280.237 76.2277 278.837 76.2277H238.582C237.181 76.2277 235.844 76.8153 234.897 77.8475L212.764 101.972L212.286 102.522Z"
    fill="var(--rect-color)" />
</svg>
